<?xml version="1.0" encoding="UTF-8"?><svg id="Calque_2" xmlns="http://www.w3.org/2000/svg" viewBox="0 0 137.2524 83.8882"><g id="Components"><g id="_06f28467-502f-41b4-8d27-1923e636446e_1"><path d="m18.5234,1.8257H6.4296v9.3593h8.3594c2.5,0,3.75-1.2187,3.75-3.4687s-.0156-5.8906-.0156-5.8906Z" style="fill:#ef7921;"/><path d="m24.4169,1.3159c3.9483-.752,9.1182-1.3159,15.6988-1.3159,8.084,0,14.0058,1.8799,17.7666,5.2636,3.4775,3.0083,5.6396,7.6143,5.6396,13.254,0,5.7343-1.6924,10.246-4.9824,13.5366-4.3232,4.6054-11.374,6.9551-19.3633,6.9551-2.4443,0-4.7002-.0938-6.5805-.5635v25.3799h-8.1788V1.3159Zm8.1788,30.456c1.7866.4698,4.1362.6583,6.768.6583,9.9639,0,15.8858-4.8887,15.8858-13.4424,0-8.46-5.9219-12.502-14.9453-12.502-3.5723,0-6.2984.376-7.7085.6577v24.6284Z" style="fill:#010101;"/><path d="m70.2299,32.1479c0-5.4658-.0937-10.164-.3759-14.4785h7.2382l.376,9.1089h.2813c2.0683-6.2324,7.1445-10.1636,12.6904-10.1636.8457,0,1.5039.0962,2.2559.2876v7.8623c-.9395-.0957-1.7862-.1919-2.9141-.1919-5.8281,0-9.9639,4.5064-11.0918,10.7393-.1885,1.2461-.2822,2.5879-.2822,4.0264v24.7373h-8.2715l.0937-31.9278Z" style="fill:#010101;"/><path d="m114.5981,65.1303c-12.2197,0-21.8076-9.205-21.8076-23.874,0-15.5327,10.0576-24.6416,22.5596-24.6416,13.0664,0,21.9023,9.6841,21.9023,23.7783,0,17.2588-11.75,24.7373-22.5605,24.7373h-.0938Zm.2822-6.3281c7.8955,0,13.8174-7.5742,13.8174-18.1211,0-7.8623-3.8535-17.7383-13.6299-17.7383-9.6816,0-13.9121,9.2051-13.9121,18.0254,0,10.1641,5.6406,17.834,13.6309,17.834h.0937Z" style="fill:#010101;"/><path d="m0,76.7944c1.1069-.5517,2.7402-1.3486,3.8359-2.5312,2.334-2.5196,3.1455-6.4483,3.1455-17.5704V17.6694h8.2725v42.2832c0,9.0127-1.2193,15.1221-5.397,19.207-3.0698,3-5.146,3.6661-7.896,4.7286l-1.9609-7.0938Z" style="fill:#010101;"/></g></g></svg>